<svg width="552" height="659" viewBox="0 0 552 659" fill="none" xmlns="http://www.w3.org/2000/svg">
<rect x="200.658" width="351.342" height="654.333" fill="#AE9D92"/>
<rect width="43.1334" height="50.1861" transform="matrix(0.867858 0.496813 -0.383512 0.923536 223.579 473.005)" fill="#0E60FF"/>
<rect width="70.9027" height="86.6898" rx="35.4513" transform="matrix(0.974966 0.222353 -0.163219 0.98659 211.942 378.092)" fill="#F47458"/>
<path d="M23.1884 633.937C30.1105 649.024 44.8017 655.501 44.8017 655.501C44.8017 655.501 48.2699 637.516 41.3478 622.429C34.4257 607.341 19.7346 600.865 19.7346 600.865C19.7346 600.865 16.2663 618.849 23.1884 633.937Z" fill="#201F30"/>
<path d="M27.9462 628.973C40.4434 637.81 45.2565 655.362 45.2565 655.362C45.2565 655.362 29.8075 658.587 17.3103 649.75C4.81308 640.914 0 623.362 0 623.362C0 623.362 15.4489 620.137 27.9462 628.973Z" fill="#F47458"/>
<path d="M308.135 190.899H230.161V192.209H308.135V190.899Z" fill="#FFCEAE"/>
<path d="M286.971 191.881H285.857V203.991H286.971V191.881Z" fill="#FFCEAE"/>
<path d="M252.997 191.881H251.883V203.991H252.997V191.881Z" fill="#FFCEAE"/>
<path d="M347.68 253.739H269.706V255.048H347.68V253.739Z" fill="#FFCEAE"/>
<path d="M291.984 241.957H290.87V254.066H291.984V241.957Z" fill="#FFCEAE"/>
<path d="M325.958 241.957H324.844V254.066H325.958V241.957Z" fill="#FFCEAE"/>
<path d="M451.274 283.195H373.3V284.504H451.274V283.195Z" fill="#FFCEAE"/>
<path d="M395.578 271.413H394.464V283.522H395.578V271.413Z" fill="#FFCEAE"/>
<path d="M429.552 271.413H428.438V283.522H429.552V271.413Z" fill="#FFCEAE"/>
<path d="M443.476 586.919H365.502V588.228H443.476V586.919Z" fill="#FFCEAE"/>
<path d="M387.781 575.136H386.667V587.246H387.781V575.136Z" fill="#FFCEAE"/>
<path d="M421.754 575.136H420.64V587.246H421.754V575.136Z" fill="#FFCEAE"/>
<path d="M310.363 376.799H232.389V378.109H310.363V376.799Z" fill="#FFCEAE"/>
<path d="M254.668 365.017H253.554V377.127H254.668V365.017Z" fill="#FFCEAE"/>
<path d="M288.642 365.017H287.528V377.127H288.642V365.017Z" fill="#FFCEAE"/>
<path d="M334.869 534.552H256.895V535.861H334.869V534.552Z" fill="#FFCEAE"/>
<path d="M279.174 522.77H278.06V534.879H279.174V522.77Z" fill="#FFCEAE"/>
<path d="M313.148 522.77H312.034V534.879H313.148V522.77Z" fill="#FFCEAE"/>
<path d="M459.628 486.768H381.654V488.077H459.628V486.768Z" fill="#FFCEAE"/>
<path d="M403.932 474.986H402.818V487.095H403.932V474.986Z" fill="#FFCEAE"/>
<path d="M437.906 474.986H436.792V487.095H437.906V474.986Z" fill="#FFCEAE"/>
<path d="M214.817 632.592L85.3575 603.067L85.5386 601.973L214.067 631.285L222.85 578.196L105.205 551.366L101.805 536.069L102.723 535.787L105.972 550.405L223.962 577.314L214.817 632.592Z" fill="#201F30"/>
<path d="M98.1514 633.815C103.552 635.046 108.782 630.899 109.832 624.552C110.882 618.204 107.355 612.06 101.954 610.828C96.5533 609.596 91.3236 613.743 90.2735 620.091C89.2234 626.439 92.7504 632.583 98.1514 633.815Z" fill="#3F3D56"/>
<path d="M194.548 655.799C199.949 657.031 205.179 652.884 206.229 646.536C207.279 640.188 203.752 634.044 198.351 632.812C192.95 631.58 187.72 635.728 186.67 642.075C185.62 648.423 189.147 654.567 194.548 655.799Z" fill="#3F3D56"/>
<path d="M349.282 433.236C352.625 433.998 355.863 431.431 356.513 427.502C357.163 423.572 354.98 419.768 351.636 419.006C348.293 418.243 345.055 420.811 344.405 424.74C343.755 428.67 345.938 432.473 349.282 433.236Z" fill="#3F3D56"/>
<path d="M240.616 563.505L95.1024 530.319L83.6271 402.184L293.052 449.946L292.744 450.614L240.616 563.505ZM95.9724 529.382L240.114 562.255L291.601 450.751L84.7048 403.566L95.9724 529.382Z" fill="#201F30"/>
<path d="M192.068 527.842L112.635 526.266L96.4068 459.257L210.728 461.525L210.618 461.916L192.068 527.842Z" fill="#00FFC2"/>
<path d="M297.448 439.735L296.594 439.249L307.244 413.426L342.995 421.579L342.814 422.674L307.78 414.684L297.448 439.735Z" fill="#201F30"/>
<path d="M276.52 484.228L87.7353 441.174L87.5543 442.268L276.339 485.323L276.52 484.228Z" fill="#201F30"/>
<path d="M259.037 522.09L91.5614 483.895L91.3804 484.99L258.856 523.185L259.037 522.09Z" fill="#201F30"/>
<path d="M188.712 426.718L187.781 426.505L167.951 546.365L168.883 546.577L188.712 426.718Z" fill="#201F30"/>
<path d="M230.416 436.193L203.902 554.525L204.82 554.809L231.334 436.477L230.416 436.193Z" fill="#201F30"/>
<path d="M146.107 416.964L145.166 416.823L131.983 538.199L132.925 538.34L146.107 416.964Z" fill="#201F30"/>
<path d="M331.618 207.897C331.618 207.897 339.76 235.132 334.75 239.322C329.739 243.512 351.659 277.729 351.659 277.729L377.964 269.35L363.559 240.719C363.559 240.719 361.68 212.087 361.68 207.897C361.68 203.708 331.618 207.897 331.618 207.897Z" fill="#FFD6BA"/>
<path opacity="0.1" d="M331.618 207.897C331.618 207.897 339.76 235.132 334.75 239.322C329.739 243.512 351.659 277.729 351.659 277.729L377.964 269.35L363.559 240.719C363.559 240.719 361.68 212.087 361.68 207.897C361.68 203.708 331.618 207.897 331.618 207.897Z" fill="black"/>
<path d="M317.952 402.031C317.952 402.031 315.575 436.947 317.952 455.103C320.329 473.26 323.894 523.539 323.894 523.539C323.894 523.539 323.894 618.511 336.966 619.907C350.037 621.304 359.544 622.7 360.733 617.114C361.921 611.527 354.791 608.734 358.356 605.941C361.921 603.147 363.109 593.371 358.356 582.198C353.602 571.025 358.356 457.897 358.356 457.897L380.935 529.125C380.935 529.125 383.311 587.784 385.688 596.164C388.065 604.544 383.311 619.907 391.63 621.304C399.948 622.7 409.455 614.321 414.208 611.527C418.962 608.734 407.078 608.734 409.455 607.337C411.832 605.941 418.962 601.751 416.585 600.354C414.208 598.958 411.832 531.919 411.832 531.919C411.832 531.919 405.296 388.763 396.977 383.176C388.659 377.59 383.311 387.212 383.311 387.212L317.952 402.031Z" fill="#201F30"/>
<path d="M339.342 614.32V625.494C339.342 625.494 328.647 655.866 339.342 655.866C350.037 655.866 358.356 659.013 358.356 654.823V617.114L339.342 614.32Z" fill="#201F30"/>
<path d="M406.377 613.216L407.938 624.238C407.938 624.238 422.732 652.138 412.182 654.198C401.632 656.258 393.866 660.965 393.28 656.832L388.011 619.634L406.377 613.216Z" fill="#201F30"/>
<path d="M338.318 226.825C349.704 230.521 361.489 222.668 364.64 209.286C367.791 195.904 361.115 182.059 349.728 178.364C338.342 174.668 326.557 182.52 323.406 195.902C320.255 209.285 326.931 223.129 338.318 226.825Z" fill="#FFD6BA"/>
<path d="M341.719 249.797C341.719 249.797 347.661 270.747 357.168 266.557L366.675 262.367L383.312 396.444C383.312 396.444 370.24 418.791 351.226 404.824C332.212 390.858 341.719 249.797 341.719 249.797Z" fill="white"/>
<path d="M358.356 245.607L363.704 232.339C363.704 232.339 395.195 249.797 399.948 255.383C404.702 260.97 404.702 269.35 404.702 269.35L396.383 304.266C396.383 304.266 398.76 381.081 398.76 383.874C398.76 386.668 407.079 402.031 401.137 396.444C395.195 390.858 394.007 385.271 389.253 393.651C384.5 402.031 373.805 411.807 373.805 411.807L358.356 245.607Z" fill="#F47458"/>
<path d="M399.948 346.165L396.383 385.271C396.383 385.271 374.993 407.618 379.746 409.014C384.5 410.411 386.876 404.824 386.876 404.824C386.876 404.824 395.195 414.601 399.948 409.014C404.702 403.428 416.585 350.355 416.585 350.355L399.948 346.165Z" fill="#FFD6BA"/>
<path d="M352.526 168.492C348.001 166.817 343.132 165.134 338.597 166.778C336.482 167.655 334.505 168.939 332.748 170.578C327.682 174.937 322.787 180.9 322.552 188.271L324.346 188.055C323.911 189.902 323.133 191.612 322.066 193.062C322.478 192.357 322.945 193.864 322.555 194.586L319.152 200.885C322.382 200.573 325.427 204.315 325.018 208.092C327.103 200.17 329.964 191.239 336.579 188.352C339.915 186.895 343.604 187.317 347.14 187.777C350.402 188.201 353.809 188.701 356.516 190.881C359.223 193.06 360.924 197.483 359.391 200.894C360.902 200.784 362.179 202.414 362.503 204.152C362.828 205.889 362.443 207.689 362.06 209.41C363.242 211.109 365.487 209.227 366.556 207.426C369.066 203.198 371.49 198.618 371.883 193.485C372.276 188.352 369.987 182.582 365.764 181.194C366.433 180.698 366.912 179.916 367.099 179.013L363.697 177.537C364.616 177.677 365.548 177.437 366.333 176.858C364.509 178.213 354.765 169.321 352.526 168.492Z" fill="#201F30"/>
<path d="M347.661 241.417C347.661 241.417 337.987 230.276 334.506 230.958C331.024 231.641 326.271 241.417 326.271 241.417C326.271 241.417 297.75 252.59 298.939 263.763C300.127 274.936 313.199 329.405 313.199 329.405C313.199 329.405 323.894 395.048 314.387 402.031C304.88 409.014 359.544 427.17 360.733 418.79C361.921 410.411 364.298 326.612 360.733 314.042C357.168 301.473 347.661 241.417 347.661 241.417Z" fill="#F47458"/>
<path d="M389.253 263.763H403.947C403.947 263.763 414.209 316.836 415.397 322.422C416.586 328.009 418.962 354.545 417.774 354.545C416.585 354.545 392.818 348.958 392.818 353.148L389.253 263.763Z" fill="#F47458"/>
<path d="M388.755 404.078H332.503C327.014 374.4 326.555 345.725 332.503 318.329H388.755C379.678 345.232 379.11 373.71 388.755 404.078Z" fill="#FFCEAE"/>
<path d="M309.633 363.18L326.27 371.56C326.27 371.56 358.356 377.146 358.356 361.783C358.356 346.42 326.27 354.8 326.27 354.8L315.574 350.781L309.633 363.18Z" fill="#FFD6BA"/>
<path d="M313.198 255.383L298.938 259.573L288.243 333.595C288.243 333.595 284.678 353.148 290.619 354.545C296.561 355.942 313.198 367.115 313.198 367.115C313.198 367.115 315.575 346.165 320.328 346.165L308.445 334.992L315.575 286.11L313.198 255.383Z" fill="#F47458"/>
<path d="M111.53 398.4H33.5557V399.709H111.53V398.4Z" fill="#FFCEAE"/>
<path d="M55.8343 386.618H54.7204V398.728H55.8343V386.618Z" fill="#FFCEAE"/>
<path d="M89.8085 386.618H88.6946V398.728H89.8085V386.618Z" fill="#FFCEAE"/>
<path d="M138.821 204.646H60.8468V205.955H138.821V204.646Z" fill="#FFCEAE"/>
<path d="M117.656 205.628H116.543V217.737H117.656V205.628Z" fill="#FFCEAE"/>
<path d="M83.6822 205.628H82.5683V217.737H83.6822V205.628Z" fill="#FFCEAE"/>
<path d="M232.496 333.597H154.522V334.906H232.496V333.597Z" fill="#FFCEAE"/>
<path d="M211.331 334.579H210.217V346.689H211.331V334.579Z" fill="#FFCEAE"/>
<path d="M177.357 334.579H176.243V346.689H177.357V334.579Z" fill="#FFCEAE"/>
<path d="M84.7961 332.943H6.82221V334.252H84.7961V332.943Z" fill="#FFCEAE"/>
<path d="M63.6319 333.924H62.5179V346.034H63.6319V333.924Z" fill="#FFCEAE"/>
<path d="M29.6569 333.924H28.543V346.034H29.6569V333.924Z" fill="#FFCEAE"/>
<path d="M178.365 267.485H100.391V268.794H178.365V267.485Z" fill="#FFCEAE"/>
<path d="M122.669 255.703H121.555V267.812H122.669V255.703Z" fill="#FFCEAE"/>
<path d="M156.643 255.703H155.53V267.812H156.643V255.703Z" fill="#FFCEAE"/>
</svg>
